<!DOCTYPE svg PUBLIC "-//W3C//DTD SVG 1.1//EN" "http://www.w3.org/Graphics/SVG/1.1/DTD/svg11.dtd">
<!-- Uploaded to: SVG Repo, www.svgrepo.com, Transformed by: SVG Repo Mixer Tools -->
<svg fill="#a790db" version="1.1" id="Layer_1" xmlns:x="&amp;ns_extend;" xmlns:i="&amp;ns_ai;" xmlns:graph="&amp;ns_graphs;" xmlns="http://www.w3.org/2000/svg" xmlns:xlink="http://www.w3.org/1999/xlink" width="800px" height="800px" viewBox="-4.56 -4.56 33.12 33.12" enable-background="new 0 0 24 24" xml:space="preserve" stroke="#a790db" stroke-width="0.144">
<g id="SVGRepo_bgCarrier" stroke-width="0"/>
<g id="SVGRepo_iconCarrier"> <metadata> <sfw> <slices> </slices> <slicesourcebounds width="505" height="984" bottomleftorigin="true" x="0" y="-552"> </slicesourcebounds> </sfw> </metadata> <g> <g> <g> <path d="M12,24C5.4,24,0,18.6,0,12S5.4,0,12,0s12,5.4,12,12S18.6,24,12,24z M12,2C6.5,2,2,6.5,2,12s4.5,10,10,10s10-4.5,10-10 S17.5,2,12,2z"/> </g> </g> <g> <g> <path d="M16,9H8C7.4,9,7,8.6,7,8s0.4-1,1-1h8c0.6,0,1,0.4,1,1S16.6,9,16,9z"/> </g> </g> <g> <g> <path d="M16,13H8c-0.6,0-1-0.4-1-1s0.4-1,1-1h8c0.6,0,1,0.4,1,1S16.6,13,16,13z"/> </g> </g> <g> <g> <path d="M16,17H8c-0.6,0-1-0.4-1-1s0.4-1,1-1h8c0.6,0,1,0.4,1,1S16.6,17,16,17z"/> </g> </g> </g> </g>
</svg>